<mxfile host="app.diagrams.net" agent="Mozilla/5.0 (Windows NT 10.0; Win64; x64) AppleWebKit/537.36 (KHTML, like Gecko) Chrome/130.0.0.0 Safari/537.36" version="24.8.3">
  <diagram name="Page-1" id="2Aa24GqF2XLu8oOQqRLy">
    <mxGraphModel dx="3180" dy="2013" grid="1" gridSize="10" guides="1" tooltips="1" connect="1" arrows="1" fold="1" page="1" pageScale="1" pageWidth="2336" pageHeight="1654" math="0" shadow="0">
      <root>
        <mxCell id="0" />
        <mxCell id="1" parent="0" />
        <mxCell id="jj-g4El_jdK13T-80Ow1-3" style="edgeStyle=orthogonalEdgeStyle;rounded=0;orthogonalLoop=1;jettySize=auto;html=1;exitX=0.5;exitY=1;exitDx=0;exitDy=0;entryX=0.5;entryY=0;entryDx=0;entryDy=0;" edge="1" parent="1">
          <mxGeometry relative="1" as="geometry">
            <mxPoint x="1182" y="180" as="sourcePoint" />
            <mxPoint x="1182" y="220" as="targetPoint" />
          </mxGeometry>
        </mxCell>
        <mxCell id="jj-g4El_jdK13T-80Ow1-15" style="edgeStyle=orthogonalEdgeStyle;rounded=0;orthogonalLoop=1;jettySize=auto;html=1;exitX=0;exitY=0.5;exitDx=0;exitDy=0;exitPerimeter=0;" edge="1" parent="1" source="jj-g4El_jdK13T-80Ow1-48">
          <mxGeometry relative="1" as="geometry">
            <mxPoint x="1123" y="655" as="sourcePoint" />
            <mxPoint x="968" y="660" as="targetPoint" />
            <Array as="points">
              <mxPoint x="968" y="620" />
            </Array>
          </mxGeometry>
        </mxCell>
        <mxCell id="jj-g4El_jdK13T-80Ow1-16" value="ถ้าว่าง" style="text;html=1;align=center;verticalAlign=middle;resizable=0;points=[];autosize=1;strokeColor=none;fillColor=none;" vertex="1" parent="1">
          <mxGeometry x="1033" y="590" width="50" height="30" as="geometry" />
        </mxCell>
        <mxCell id="jj-g4El_jdK13T-80Ow1-19" value="ถ้าไม่ว่าง" style="text;html=1;align=center;verticalAlign=middle;resizable=0;points=[];autosize=1;strokeColor=none;fillColor=none;" vertex="1" parent="1">
          <mxGeometry x="1298" y="590" width="70" height="30" as="geometry" />
        </mxCell>
        <mxCell id="jj-g4El_jdK13T-80Ow1-59" value="" style="edgeStyle=orthogonalEdgeStyle;rounded=0;orthogonalLoop=1;jettySize=auto;html=1;" edge="1" parent="1" source="jj-g4El_jdK13T-80Ow1-35" target="jj-g4El_jdK13T-80Ow1-58">
          <mxGeometry relative="1" as="geometry" />
        </mxCell>
        <mxCell id="jj-g4El_jdK13T-80Ow1-35" value="แสดงกระดานที่อัพเดตแล้ว" style="shape=parallelogram;html=1;strokeWidth=2;perimeter=parallelogramPerimeter;whiteSpace=wrap;rounded=1;arcSize=12;size=0.23;" vertex="1" parent="1">
          <mxGeometry x="858" y="760" width="220" height="60" as="geometry" />
        </mxCell>
        <mxCell id="jj-g4El_jdK13T-80Ow1-42" value="" style="edgeStyle=orthogonalEdgeStyle;rounded=0;orthogonalLoop=1;jettySize=auto;html=1;" edge="1" parent="1" source="jj-g4El_jdK13T-80Ow1-36" target="jj-g4El_jdK13T-80Ow1-39">
          <mxGeometry relative="1" as="geometry" />
        </mxCell>
        <mxCell id="jj-g4El_jdK13T-80Ow1-36" value="การกำหนดสัญลักษณ์ผู้เล่น" style="shape=parallelogram;html=1;strokeWidth=2;perimeter=parallelogramPerimeter;whiteSpace=wrap;rounded=1;arcSize=12;size=0.23;" vertex="1" parent="1">
          <mxGeometry x="1073" y="170" width="230" height="60" as="geometry" />
        </mxCell>
        <mxCell id="jj-g4El_jdK13T-80Ow1-41" value="" style="edgeStyle=orthogonalEdgeStyle;rounded=0;orthogonalLoop=1;jettySize=auto;html=1;" edge="1" parent="1" source="jj-g4El_jdK13T-80Ow1-37" target="jj-g4El_jdK13T-80Ow1-36">
          <mxGeometry relative="1" as="geometry" />
        </mxCell>
        <mxCell id="jj-g4El_jdK13T-80Ow1-37" value="Start" style="strokeWidth=2;html=1;shape=mxgraph.flowchart.start_1;whiteSpace=wrap;" vertex="1" parent="1">
          <mxGeometry x="1138" y="80" width="100" height="60" as="geometry" />
        </mxCell>
        <mxCell id="jj-g4El_jdK13T-80Ow1-44" value="" style="edgeStyle=orthogonalEdgeStyle;rounded=0;orthogonalLoop=1;jettySize=auto;html=1;" edge="1" parent="1" source="jj-g4El_jdK13T-80Ow1-39" target="jj-g4El_jdK13T-80Ow1-43">
          <mxGeometry relative="1" as="geometry" />
        </mxCell>
        <mxCell id="jj-g4El_jdK13T-80Ow1-39" value="กำหนดผู้เล่นที่จะเริ่มก่อน" style="shape=parallelogram;html=1;strokeWidth=2;perimeter=parallelogramPerimeter;whiteSpace=wrap;rounded=1;arcSize=12;size=0.23;" vertex="1" parent="1">
          <mxGeometry x="1068" y="270" width="240" height="60" as="geometry" />
        </mxCell>
        <mxCell id="jj-g4El_jdK13T-80Ow1-47" value="" style="edgeStyle=orthogonalEdgeStyle;rounded=0;orthogonalLoop=1;jettySize=auto;html=1;" edge="1" parent="1" source="jj-g4El_jdK13T-80Ow1-43" target="jj-g4El_jdK13T-80Ow1-45">
          <mxGeometry relative="1" as="geometry" />
        </mxCell>
        <mxCell id="jj-g4El_jdK13T-80Ow1-43" value="แสดงกระดานเกม" style="shape=parallelogram;html=1;strokeWidth=2;perimeter=parallelogramPerimeter;whiteSpace=wrap;rounded=1;arcSize=12;size=0.23;" vertex="1" parent="1">
          <mxGeometry x="1063" y="370" width="250" height="60" as="geometry" />
        </mxCell>
        <mxCell id="jj-g4El_jdK13T-80Ow1-46" value="" style="edgeStyle=orthogonalEdgeStyle;rounded=0;orthogonalLoop=1;jettySize=auto;html=1;exitX=0.5;exitY=1;exitDx=0;exitDy=0;" edge="1" parent="1" target="jj-g4El_jdK13T-80Ow1-45">
          <mxGeometry relative="1" as="geometry">
            <mxPoint x="1182" y="480" as="sourcePoint" />
            <mxPoint x="1182" y="480" as="targetPoint" />
          </mxGeometry>
        </mxCell>
        <mxCell id="jj-g4El_jdK13T-80Ow1-49" value="" style="edgeStyle=orthogonalEdgeStyle;rounded=0;orthogonalLoop=1;jettySize=auto;html=1;" edge="1" parent="1" source="jj-g4El_jdK13T-80Ow1-45" target="jj-g4El_jdK13T-80Ow1-48">
          <mxGeometry relative="1" as="geometry" />
        </mxCell>
        <mxCell id="jj-g4El_jdK13T-80Ow1-45" value="ให้ผู้เล่นที่ถึงตา เลือกแถวและคอลัมน์" style="shape=parallelogram;html=1;strokeWidth=2;perimeter=parallelogramPerimeter;whiteSpace=wrap;rounded=1;arcSize=12;size=0.23;" vertex="1" parent="1">
          <mxGeometry x="1063" y="470" width="250" height="60" as="geometry" />
        </mxCell>
        <mxCell id="jj-g4El_jdK13T-80Ow1-51" style="edgeStyle=orthogonalEdgeStyle;rounded=0;orthogonalLoop=1;jettySize=auto;html=1;exitX=1;exitY=0.5;exitDx=0;exitDy=0;exitPerimeter=0;" edge="1" parent="1" source="jj-g4El_jdK13T-80Ow1-48" target="jj-g4El_jdK13T-80Ow1-50">
          <mxGeometry relative="1" as="geometry">
            <Array as="points">
              <mxPoint x="1418" y="620" />
            </Array>
          </mxGeometry>
        </mxCell>
        <mxCell id="jj-g4El_jdK13T-80Ow1-48" value="ตรวจสอบว่าช่องที่&lt;div&gt;เลือกว่าง&lt;div&gt;หรือไม่?&lt;/div&gt;&lt;/div&gt;" style="strokeWidth=2;html=1;shape=mxgraph.flowchart.decision;whiteSpace=wrap;" vertex="1" parent="1">
          <mxGeometry x="1138" y="570" width="100" height="100" as="geometry" />
        </mxCell>
        <mxCell id="jj-g4El_jdK13T-80Ow1-50" value="แจ้งเตือนผู้เล่น&lt;div&gt;และให้เลือกใหม่&lt;/div&gt;" style="shape=parallelogram;html=1;strokeWidth=2;perimeter=parallelogramPerimeter;whiteSpace=wrap;rounded=1;arcSize=12;size=0.23;" vertex="1" parent="1">
          <mxGeometry x="1328" y="660" width="170" height="60" as="geometry" />
        </mxCell>
        <mxCell id="jj-g4El_jdK13T-80Ow1-57" value="" style="edgeStyle=orthogonalEdgeStyle;rounded=0;orthogonalLoop=1;jettySize=auto;html=1;" edge="1" parent="1" source="jj-g4El_jdK13T-80Ow1-52" target="jj-g4El_jdK13T-80Ow1-35">
          <mxGeometry relative="1" as="geometry" />
        </mxCell>
        <mxCell id="jj-g4El_jdK13T-80Ow1-52" value="อัพเดตกระดานด้วย&lt;div&gt;สัญลักษณ์ของผู้เล่น&lt;/div&gt;" style="shape=parallelogram;html=1;strokeWidth=2;perimeter=parallelogramPerimeter;whiteSpace=wrap;rounded=1;arcSize=12;size=0.23;" vertex="1" parent="1">
          <mxGeometry x="868" y="660" width="200" height="60" as="geometry" />
        </mxCell>
        <mxCell id="jj-g4El_jdK13T-80Ow1-61" style="edgeStyle=orthogonalEdgeStyle;rounded=0;orthogonalLoop=1;jettySize=auto;html=1;exitX=0;exitY=0.5;exitDx=0;exitDy=0;exitPerimeter=0;entryX=0.5;entryY=0;entryDx=0;entryDy=0;" edge="1" parent="1" source="jj-g4El_jdK13T-80Ow1-58" target="jj-g4El_jdK13T-80Ow1-60">
          <mxGeometry relative="1" as="geometry" />
        </mxCell>
        <mxCell id="jj-g4El_jdK13T-80Ow1-58" value="&lt;br&gt;ตรวจสอบ&lt;div&gt;ผู้ชนะ&lt;br&gt;&lt;/div&gt;" style="strokeWidth=2;html=1;shape=mxgraph.flowchart.decision;whiteSpace=wrap;" vertex="1" parent="1">
          <mxGeometry x="918" y="850" width="100" height="100" as="geometry" />
        </mxCell>
        <mxCell id="jj-g4El_jdK13T-80Ow1-60" value="ประกาศผู้ชนะ" style="shape=parallelogram;html=1;strokeWidth=2;perimeter=parallelogramPerimeter;whiteSpace=wrap;rounded=1;arcSize=12;size=0.23;" vertex="1" parent="1">
          <mxGeometry x="778" y="970" width="180" height="60" as="geometry" />
        </mxCell>
        <mxCell id="jj-g4El_jdK13T-80Ow1-66" style="edgeStyle=orthogonalEdgeStyle;rounded=0;orthogonalLoop=1;jettySize=auto;html=1;exitX=0;exitY=0.5;exitDx=0;exitDy=0;exitPerimeter=0;entryX=0.5;entryY=0;entryDx=0;entryDy=0;" edge="1" parent="1" source="jj-g4El_jdK13T-80Ow1-63" target="jj-g4El_jdK13T-80Ow1-65">
          <mxGeometry relative="1" as="geometry" />
        </mxCell>
        <mxCell id="jj-g4El_jdK13T-80Ow1-67" style="edgeStyle=orthogonalEdgeStyle;rounded=0;orthogonalLoop=1;jettySize=auto;html=1;exitX=1;exitY=0.5;exitDx=0;exitDy=0;exitPerimeter=0;entryX=0;entryY=0.5;entryDx=0;entryDy=0;" edge="1" parent="1" target="jj-g4El_jdK13T-80Ow1-45">
          <mxGeometry relative="1" as="geometry">
            <mxPoint x="1071.69" y="500" as="targetPoint" />
            <mxPoint x="1087.94" y="1000" as="sourcePoint" />
            <Array as="points">
              <mxPoint x="1558" y="1000" />
              <mxPoint x="1558" y="500" />
            </Array>
          </mxGeometry>
        </mxCell>
        <mxCell id="jj-g4El_jdK13T-80Ow1-63" value="ตรวจสอบว่าเสมอหรือไม่" style="strokeWidth=2;html=1;shape=mxgraph.flowchart.decision;whiteSpace=wrap;" vertex="1" parent="1">
          <mxGeometry x="1008" y="950" width="100" height="100" as="geometry" />
        </mxCell>
        <mxCell id="jj-g4El_jdK13T-80Ow1-64" style="edgeStyle=orthogonalEdgeStyle;rounded=0;orthogonalLoop=1;jettySize=auto;html=1;exitX=1;exitY=0.5;exitDx=0;exitDy=0;exitPerimeter=0;entryX=0.5;entryY=0;entryDx=0;entryDy=0;entryPerimeter=0;" edge="1" parent="1" source="jj-g4El_jdK13T-80Ow1-58" target="jj-g4El_jdK13T-80Ow1-63">
          <mxGeometry relative="1" as="geometry" />
        </mxCell>
        <mxCell id="jj-g4El_jdK13T-80Ow1-65" value="ประกาศผลเสมอ" style="shape=parallelogram;html=1;strokeWidth=2;perimeter=parallelogramPerimeter;whiteSpace=wrap;rounded=1;arcSize=12;size=0.23;" vertex="1" parent="1">
          <mxGeometry x="888" y="1060" width="150" height="60" as="geometry" />
        </mxCell>
        <mxCell id="jj-g4El_jdK13T-80Ow1-69" value="End" style="strokeWidth=2;html=1;shape=mxgraph.flowchart.start_1;whiteSpace=wrap;" vertex="1" parent="1">
          <mxGeometry x="1132" y="1130" width="100" height="60" as="geometry" />
        </mxCell>
        <mxCell id="jj-g4El_jdK13T-80Ow1-70" style="edgeStyle=orthogonalEdgeStyle;rounded=0;orthogonalLoop=1;jettySize=auto;html=1;exitX=0.5;exitY=1;exitDx=0;exitDy=0;entryX=0;entryY=0.5;entryDx=0;entryDy=0;entryPerimeter=0;" edge="1" parent="1" source="jj-g4El_jdK13T-80Ow1-65" target="jj-g4El_jdK13T-80Ow1-69">
          <mxGeometry relative="1" as="geometry" />
        </mxCell>
      </root>
    </mxGraphModel>
  </diagram>
</mxfile>
